<svg width="196" height="196" viewBox="0 0 196 196" fill="none" xmlns="http://www.w3.org/2000/svg">
<rect width="195.294" height="195.294" rx="97.6471" fill="#1B1919"/>
<path d="M95.6377 52.3203C103.796 52.3204 111.621 55.5612 117.39 61.3301C123.159 67.0991 126.399 74.9243 126.399 83.083C126.399 91.2416 123.159 99.066 117.39 104.835C114.32 107.905 110.667 110.258 106.692 111.789L134.696 142.319H117.723L81.4443 102.934L96 103.034C101.162 102.94 106.092 100.851 109.749 97.1943C113.492 93.4517 115.595 88.3758 115.595 83.083C115.595 77.7901 113.492 72.7134 109.749 68.9707C106.006 65.2282 100.93 63.1261 95.6377 63.126V52.3203ZM95.6367 63.1289H70.3955V94.126L59.3525 83.083V52.3203H95.6367V63.1289Z" fill="#C6C6C6"/>
<path d="M104.312 142.237H88.1426L70.3955 123.273V142.238H59.3525V94.1211L104.312 142.237Z" fill="#10B981"/>
<path fill-rule="evenodd" clip-rule="evenodd" d="M98.9102 0.0078125C118.491 0.255876 136.683 6.26745 151.867 16.4238L156.647 19.5L162.266 24.4375C182.521 42.3292 195.295 68.496 195.295 97.6465L195.287 98.9092C194.617 151.836 151.837 194.616 98.9102 195.286L97.6484 195.294C68.4979 195.294 42.3314 182.52 24.4395 162.265L19.6475 156.5L16.4268 151.864C6.05255 136.354 0.000976563 117.707 0.000976562 97.6465L0.00878906 96.3848C0.684633 43.0375 44.1409 0 97.6484 0L98.9102 0.0078125ZM97.6484 13.0195C50.9102 13.0195 13.0208 50.9083 13.0205 97.6465C13.0205 114.1 17.7166 129.457 25.8408 142.45L33.666 153.038C49.1833 170.946 72.0928 182.274 97.6484 182.274C144.387 182.274 182.275 144.385 182.275 97.6465C182.275 72.0909 170.948 49.1801 153.04 33.6631L142.452 25.8389C129.459 17.7147 114.102 13.0196 97.6484 13.0195Z" fill="#565058"/>
</svg>
